<?xml version="1.0" encoding="UTF-8"?>
<svg viewBox="0 0 584.34589 1513.4688" xmlns="http://www.w3.org/2000/svg">
 <g transform="translate(1435.4 -279.91)">
  <path transform="translate(-694.74 66.75)" d="m-516.06 307.16c-7.1829 0-13.031 5.0675-13.031 11.344s5.8484 11.375 13.031 11.375 13-5.0987 13-11.375-5.8171-11.344-13-11.344zm2.2812 47.969c-7.1829 0-13 5.0987-13 11.375s5.8171 11.344 13 11.344 13-5.0675 13-11.344-5.8171-11.375-13-11.375zm2.1562 45.688c-7.1829 0-13 5.0675-13 11.344s5.8171 11.375 13 11.375 13-5.0987 13-11.375-5.8171-11.344-13-11.344z" fill="#f5d5ae"/>
  <path d="m-1075.7 373.91c7.1828 0 13.031 5.0675 13.031 11.344s-5.8484 11.375-13.031 11.375-13-5.0987-13-11.375 5.8171-11.344 13-11.344zm-2.2813 47.969c7.1829 0 13 5.0987 13 11.375s-5.8171 11.344-13 11.344-13-5.0675-13-11.344 5.8172-11.375 13-11.375zm-2.1562 45.688c7.1828 0 13 5.0675 13 11.344s-5.8172 11.375-13 11.375-13-5.0987-13-11.375 5.8171-11.344 13-11.344z" fill="#f5d5ae"/>
  <path transform="translate(-694.74 66.75)" d="m-448.5 971.16c-162.02 0-210.38 64.536-216.31 130.44-5.0563 56.174 30.797 117.94 28.906 150-3.8185 64.754-110.42 119.07-104.53 269.72 6.818 174.33 157.45 205.31 291.94 205.31s285.12-30.982 291.94-205.31c5.892-150.65-100.74-204.96-104.56-269.72-1.8907-32.062 33.994-93.826 28.938-150-5.9318-65.902-54.294-130.44-216.31-130.44z" fill="#e8a45b"/>
  <path d="m-1201.7 467.08h116.9v11.835h-116.9z" fill="#ccc"/>
  <path d="m-1204 421.41h121.49v11.835h-121.49z" fill="#ccc"/>
  <path d="m-1206.4 373.42h126.32v11.835h-126.32z" fill="#ccc"/>
  <path transform="translate(-694.74 66.75)" d="m-448.5 213.16c-18.913 0-54.345 11.792-58.312 26.938l10 210 4.6562 4.6562 6.0625 9.2812h75.156l6.0625-9.2812 4.6562-4.6562 10-210c-3.9672-15.145-39.368-26.938-58.281-26.938zm-34.156 70.281c4.0867-0.14969 8.0633 2.4009 8.375 8.0938l6.7812 123.94c0.8243 15.054-18.266 17.268-18.938 1.7812l-5.3438-123.56c-0.2788-6.4306 4.4934-10.08 9.125-10.25zm67.5 0c4.868-0.2539 10.233 3.4411 9.9375 10.25l-5.375 123.56c-0.6714 15.487-19.731 13.273-18.906-1.7812l6.7812-123.94c0.29094-5.3133 3.7763-7.8963 7.5625-8.0938z" fill="#e8a45b"/>
  <path transform="matrix(.98404 0 0 .98404 -701.9 86.279)" d="m-353.55 1223.8c0 52.442-42.513 94.954-94.954 94.954s-94.954-42.512-94.954-94.954 42.513-94.954 94.954-94.954 94.954 42.512 94.954 94.954z" fill="#c2682c"/>
  <path transform="matrix(.78191 0 0 .78191 -792.55 333.65)" d="m-353.55 1223.8c0 52.442-42.513 94.954-94.954 94.954s-94.954-42.512-94.954-94.954 42.513-94.954 94.954-94.954 94.954 42.512 94.954 94.954z" fill="#ecab6b"/>
  <path transform="matrix(.71277 0 0 .71277 -823.57 418.27)" d="m-353.55 1223.8c0 52.442-42.513 94.954-94.954 94.954s-94.954-42.512-94.954-94.954 42.513-94.954 94.954-94.954 94.954 42.512 94.954 94.954z"/>
  <path d="m-1279.5 1536.9h272.5a7.1429 10.714 0 0 1 7.1429 10.714v21.071a7.1429 10.714 0 0 1 -7.1429 10.714h-272.5a7.1429 10.714 0 0 1 -7.1429 -10.714v-21.071a7.1429 10.714 0 0 1 7.1429 -10.714" fill="#380b00"/>
  <path d="m-1203.5 1541.1h120.47a3.1578 8.5534 0 0 1 3.1578 8.5534v16.822a3.1578 8.5534 0 0 1 -3.1578 8.5534h-120.47a3.1578 8.5534 0 0 1 -3.1578 -8.5534v-16.822a3.1578 8.5534 0 0 1 3.1578 -8.5534" fill="#754410"/>
  <path transform="translate(-694.74 66.75)" d="m-511.91 1489.4v7.125h126.78v-7.125h-126.78z" fill="#ccc"/>
  <path transform="translate(-694.74 66.75)" d="m-486.09 464.03-13.25 715.09h0.0625c12.403-14.081 30.542-22.969 50.781-22.969s38.379 8.888 50.781 22.969c4e-3 0.01 0.0268-0.01 0.0312 0l-13.25-715.09h-75.156z" fill="#b88a70"/>
  <path transform="translate(-694.74 66.75)" d="m-486.25 473.03-0.15625 7.8125h75.781l-0.15625-7.8125h-75.469zm-1.0938 58.594-0.0625 3.7812h77.781l-0.0625-3.7812h-77.656zm-0.9375 50.75-0.0625 3.7812h79.656l-0.0625-3.7812h-79.531zm-0.875 47.719-0.0937 3.8125h81.469l-0.0937-3.8125h-81.281zm-0.875 45.969-0.0625 3.7812h83.156l-0.0625-3.7812h-83.031zm-0.8125 44.438-0.0625 3.8125h84.781l-0.0625-3.8125h-84.656zm-0.75 39.906-0.0625 3.7812h86.281l-0.0625-3.7812h-86.156zm-0.6875 37.625-0.0625 3.8125h87.656l-0.0625-3.8125h-87.531zm-0.6875 37.656-0.0937 3.7812h89.094l-0.0937-3.7812h-88.906zm-0.65625 35.094-0.0625 3.7812h90.344l-0.0625-3.7812h-90.219zm-0.625 33.062-0.0625 3.8125h91.594l-0.0625-3.8125h-91.469zm-0.59375 32.344-0.0625 3.7812h92.781l-0.0625-3.7812h-92.656zm-0.53125 28.656-0.0625 3.7812h93.844l-0.0625-3.7812h-93.719zm-0.5 27.75-0.0937 3.8125h94.906l-0.0937-3.8125h-94.719zm-0.5 25.781-0.0625 3.7812h95.844l-0.0625-3.7812h-95.719zm-0.46875 26-0.0625 3.7812h96.781l-0.0625-3.7812h-96.656zm-0.4375 24-0.0937 3.7812h97.719l-0.0937-3.7812h-97.531zm-0.40625 21.719-0.0625 3.7812h98.469l-0.0625-3.7812h-98.344zm-0.375 20.437-0.0937 3.8126h99.281l-0.0937-3.8126h-99.094zm-0.375 19.719-0.0625 3.7812h99.969l-0.0625-3.7812h-99.844z" fill="#fff"/>
  <g fill="none" stroke="#000" stroke-linecap="round" stroke-linejoin="round" stroke-width="2">
   <path transform="matrix(-1 0 0 1 -1590.6 66.75)" d="m-495.86 1496.5 0.25254-7.125 16.776-1008.6v-7.8262l-0.73956-60.864v-11.835"/>
   <path transform="matrix(-1 0 0 1 -1590.6 66.75)" d="m-477.04 1496.5v-7.125l11.424-1008.6v-7.8262l-7.1312-106.83v-12.374"/>
   <path transform="matrix(-1 0 0 1 -1590.6 66.75)" d="m-457.6 1496.5 0.12627-7.125 5.3467-1008.6v-7.8262l-25.017-154.52v-11.835"/>
  </g>
  <g fill="none" stroke="#000" stroke-linecap="round" stroke-linejoin="round" stroke-width="2">
   <path transform="translate(-695.13 67.107)" d="m-495.86 1496.5 0.25254-7.125 16.776-1008.6v-7.8262l-0.73956-60.864v-11.835"/>
   <path transform="translate(-695.13 67.107)" d="m-477.04 1496.5v-7.125l11.424-1008.6v-7.8262l-7.1312-106.83v-12.374"/>
   <path transform="translate(-695.13 67.107)" d="m-457.6 1496.5 0.12627-7.125 5.3467-1008.6v-7.8262l-25.017-154.52v-11.835"/>
  </g>
 </g>
</svg>
