<?xml version="1.0" encoding="UTF-8"?>
<svg version="1.1" viewBox="0 0 847.43 285.91" xmlns="http://www.w3.org/2000/svg" xmlns:xlink="http://www.w3.org/1999/xlink">
 <defs>
  <filter id="l" x="-.020987" y="-.12648" width="1.042" height="1.253" color-interpolation-filters="sRGB">
   <feGaussianBlur stdDeviation="1.0638504"/>
  </filter>
  <linearGradient id="h" x1="-959.4" x2="-924.42" y1="735.84" y2="735.84" gradientTransform="matrix(.99243 .016134 -.014311 .88031 1104.8 -121.47)" gradientUnits="userSpaceOnUse" xlink:href="#e"/>
  <linearGradient id="e">
   <stop stop-color="#f2f2f2" offset="0"/>
   <stop stop-color="#383838" offset=".075"/>
   <stop stop-color="#565656" offset=".08681"/>
   <stop stop-color="#f2f2f2" offset="1"/>
  </linearGradient>
  <filter id="c" x="-.15705" y="-3.6646" width="1.3141" height="8.3292" color-interpolation-filters="sRGB">
   <feGaussianBlur stdDeviation="0.67757147"/>
  </filter>
  <linearGradient id="i" x1="-959.4" x2="-924.42" y1="735.84" y2="735.84" gradientTransform="matrix(.99256 0 0 .88043 1096.9 -139.47)" gradientUnits="userSpaceOnUse" xlink:href="#e"/>
  <linearGradient id="d" x1="-966.83" x2="-962.07" y1="504.67" y2="513.3" gradientTransform="translate(-6.5699 355.5)" gradientUnits="userSpaceOnUse" xlink:href="#g"/>
  <linearGradient id="g">
   <stop stop-color="#f2f2f2" offset="0"/>
   <stop stop-color="#616161" offset="1"/>
  </linearGradient>
  <linearGradient id="j" x1="-252.47" x2="-252.47" y1="217.43" y2="292.18" gradientTransform="translate(1067.2 272.37)" gradientUnits="userSpaceOnUse" xlink:href="#f"/>
  <linearGradient id="f">
   <stop stop-color="#646464" offset="0"/>
  </linearGradient>
  <filter id="m" color-interpolation-filters="sRGB">
   <feGaussianBlur stdDeviation="1.4187286"/>
  </filter>
  <linearGradient id="a" x1="-395.74" x2="-402.42" y1="706.87" y2="696.47" gradientTransform="translate(-6.5699 355.5)" gradientUnits="userSpaceOnUse" xlink:href="#g"/>
  <filter id="b" color-interpolation-filters="sRGB">
   <feGaussianBlur stdDeviation="0.18589301"/>
  </filter>
  <linearGradient id="k" x1="-950.49" x2="-949.48" y1="117.42" y2="361.88" gradientTransform="translate(1067.2 272.37)" gradientUnits="userSpaceOnUse" xlink:href="#f"/>
  <filter id="n" color-interpolation-filters="sRGB">
   <feGaussianBlur stdDeviation="6.7219765"/>
  </filter>
 </defs>
 <g transform="translate(6.5699 -357.98)">
  <path d="m12.845 433.65c46.692-14.912 78.979-25.273 129.54-67.836 110.99 67.264 123.6 111.62 216.24 52.131l74.33 26.897c-28.664 0.891-99.162 8.6207-67.775 49.005l-42.317 4.1591-1.6159 37.396c-51.655 35.653 19.812 74.225 43.217 71.427l-60.61 12.892c-77.001-59.893-96.131-16.674-187.26 19.385l-123.16-39.097c22.248-12.293 89.151-43.283 119.74-62.302 9.9248-18.661-20.851-69.245-100.32-104.06z" color="#000000" opacity=".99026"/>
  <path d="m35.605 435.01c43.709-14.485 59.333-19.602 106.68-60.902 103.85 65.164 115.48 116.46 202.22 58.726l41.795 11.07c-26.828 0.87971-82.345 2.3615-52.991 41.504l-39.608 4.0562-1.5329 36.263c-48.365 34.6 24.554 82.433 46.462 79.707l-43.103 3.4225c-72.035-58.035-89.963-16.116-175.27 18.9l-102.91-31.421c20.829-11.932 83.463-42.02 112.1-60.479 9.2992-18.101-19.477-67.134-93.84-100.85z" color="#000000" fill="url(#k)" filter="url(#n)" opacity=".5"/>
  <path d="m299.88 491.3 395.79 16.779-0.5649 34.748-396.41-7.3848 1.1878-44.143z" color="#000000" fill="#28170b" opacity=".99026"/>
  <path d="m743.63 481.98c0.96628 0.0157 1.7306 0.86371 1.7138 1.9013l-0.11538 7.0976c-0.0169 1.0376-0.80837 1.8603-1.7746 1.8446-0.96628-0.0157-1.7306-0.8637-1.7137-1.9013l0.11538-7.0976c0.0169-1.0376 0.80836-1.8603 1.7746-1.8446z" color="#000000" fill="#ccc" opacity=".99026"/>
  <path d="m741.09 475.43 5.6525 0.0919c1.7408 0.0283 3.1195 1.4525 3.0912 3.1933l-0.0581 3.5766c-0.0283 1.7408-1.4525 3.1194-3.1933 3.0912l-5.6525-0.0919c-1.7408-0.0283-3.1195-1.4525-3.0912-3.1933l0.0582-3.5766c0.0283-1.7408 1.4525-3.1195 3.1933-3.0912z" color="#000000" fill="#ccc" opacity=".99026"/>
  <path d="m740.89 476.02 5.4853 0.0892c1.3294 0.0216 2.381 1.1883 2.3578 2.6158l-0.0477 2.933c-0.0232 1.4275-1.1121 2.5594-2.4415 2.5378l-5.4853-0.0892c-1.3294-0.0216-2.381-1.1883-2.3578-2.6158l0.0477-2.933c0.0232-1.4276 1.1121-2.5594 2.4415-2.5378z" color="#000000" fill="url(#a)" filter="url(#b)" opacity=".99026"/>
  <path d="m766.98 488.87c0.96628 0.0157 1.7306 0.8637 1.7137 1.9013l-0.11538 7.0976c-0.0169 1.0376-0.80836 1.8603-1.7746 1.8446-0.96629-0.0157-1.7306-0.8637-1.7138-1.9013l0.11538-7.0976c0.0169-1.0376 0.80836-1.8603 1.7746-1.8446z" color="#000000" fill="#ccc" opacity=".99026"/>
  <path d="m764.44 482.32 5.6525 0.0919c1.7408 0.0283 3.1194 1.4525 3.0912 3.1933l-0.0581 3.5766c-0.0283 1.7408-1.4525 3.1194-3.1933 3.0912l-5.6525-0.0919c-1.7408-0.0283-3.1194-1.4525-3.0912-3.1933l0.0581-3.5766c0.0283-1.7408 1.4525-3.1194 3.1933-3.0912z" color="#000000" fill="#ccc" opacity=".99026"/>
  <path d="m764.24 482.91 5.4853 0.0892c1.3294 0.0216 2.381 1.1883 2.3578 2.6158l-0.0477 2.933c-0.0232 1.4275-1.1121 2.5594-2.4415 2.5378l-5.4853-0.0892c-1.3294-0.0216-2.381-1.1883-2.3578-2.6158l0.0477-2.933c0.0232-1.4276 1.1121-2.5594 2.4415-2.5378z" color="#000000" fill="url(#a)" filter="url(#b)" opacity=".99026"/>
  <path d="m792.17 485.68c0.96628 0.0157 1.7306 0.8637 1.7137 1.9013l-0.11538 7.0976c-0.0169 1.0376-0.80836 1.8603-1.7746 1.8446-0.96628-0.0157-1.7306-0.8637-1.7138-1.9013l0.11538-7.0976c0.0169-1.0376 0.80837-1.8603 1.7746-1.8446z" color="#000000" fill="#ccc" opacity=".99026"/>
  <path d="m789.63 479.13 5.6525 0.0919c1.7408 0.0283 3.1194 1.4525 3.0912 3.1933l-0.0581 3.5766c-0.0283 1.7408-1.4525 3.1194-3.1933 3.0912l-5.6525-0.0919c-1.7408-0.0283-3.1195-1.4525-3.0912-3.1933l0.0581-3.5766c0.0283-1.7408 1.4525-3.1195 3.1933-3.0912z" color="#000000" fill="#ccc" opacity=".99026"/>
  <path d="m789.43 479.72 5.4853 0.0892c1.3294 0.0216 2.381 1.1883 2.3578 2.6158l-0.0477 2.933c-0.0232 1.4275-1.1121 2.5594-2.4415 2.5378l-5.4853-0.0892c-1.3294-0.0216-2.381-1.1883-2.3578-2.6158l0.0477-2.933c0.0232-1.4276 1.1121-2.5594 2.4415-2.5378z" color="#000000" fill="url(#a)" filter="url(#b)" opacity=".99026"/>
  <path d="m790.79 558.43c0.96629 0.0157 1.7578-0.807 1.7746-1.8446l0.11538-7.0976c0.0169-1.0376-0.74745-1.8856-1.7138-1.9013-0.96628-0.0157-1.7578 0.80699-1.7746 1.8446l-0.11539 7.0976c-0.0169 1.0376 0.74746 1.8856 1.7137 1.9013z" color="#000000" fill="#ccc" opacity=".99026"/>
  <path d="m788.04 564.9 5.6525 0.0919c1.7408 0.0283 3.165-1.3504 3.1933-3.0912l0.0581-3.5766c0.0283-1.7408-1.3504-3.165-3.0912-3.1933l-5.6525-0.0919c-1.7408-0.0283-3.165 1.3504-3.1933 3.0912l-0.0581 3.5766c-0.0283 1.7408 1.3504 3.165 3.0912 3.1933z" color="#000000" fill="#ccc" opacity=".99026"/>
  <path d="m787.86 564.3 5.4853 0.0892c1.3294 0.0216 2.4183-1.1102 2.4415-2.5378l0.0477-2.933c0.0232-1.4276-1.0284-2.5942-2.3578-2.6158l-5.4853-0.0892c-1.3294-0.0216-2.4183 1.1102-2.4415 2.5378l-0.0477 2.933c-0.0232 1.4276 1.0283 2.5942 2.3578 2.6158z" color="#000000" fill="url(#a)" filter="url(#b)" opacity=".99026"/>
  <path d="m766.3 553.74c0.96628 0.0157 1.7578-0.807 1.7746-1.8446l0.11539-7.0976c0.0169-1.0376-0.74746-1.8856-1.7137-1.9013-0.96629-0.0157-1.7578 0.80699-1.7746 1.8446l-0.11539 7.0976c-0.0169 1.0376 0.74747 1.8856 1.7138 1.9013z" color="#000000" fill="#ccc" opacity=".99026"/>
  <path d="m763.6 562.34 5.6525 0.0919c1.7408 0.0283 3.165-1.3504 3.1933-3.0912l0.0581-3.5766c0.0283-1.7408-1.3504-3.165-3.0912-3.1933l-5.6525-0.0919c-1.7408-0.0283-3.165 1.3504-3.1933 3.0912l-0.0581 3.5766c-0.0283 1.7408 1.3504 3.165 3.0912 3.1933z" color="#000000" fill="#ccc" opacity=".99026"/>
  <path d="m763.42 561.75 5.4853 0.0892c1.3294 0.0216 2.4183-1.1102 2.4415-2.5378l0.0477-2.933c0.0232-1.4276-1.0284-2.5942-2.3578-2.6158l-5.4853-0.0892c-1.3294-0.0216-2.4183 1.1102-2.4415 2.5378l-0.0477 2.933c-0.0232 1.4276 1.0283 2.5942 2.3578 2.6158z" color="#000000" fill="url(#a)" filter="url(#b)" opacity=".99026"/>
  <path d="m740.66 563.37c0.96628 0.0157 1.7578-0.807 1.7746-1.8446l0.11538-7.0976c0.0169-1.0376-0.74746-1.8856-1.7137-1.9013-0.96629-0.0157-1.7578 0.80699-1.7746 1.8446l-0.11538 7.0976c-0.0169 1.0376 0.74746 1.8856 1.7138 1.9013z" color="#000000" fill="#ccc" opacity=".99026"/>
  <path d="m737.91 569.83 5.6525 0.0919c1.7408 0.0283 3.165-1.3504 3.1933-3.0912l0.0581-3.5766c0.0283-1.7408-1.3504-3.165-3.0912-3.1933l-5.6525-0.0919c-1.7408-0.0283-3.165 1.3504-3.1933 3.0912l-0.0581 3.5766c-0.0283 1.7408 1.3504 3.165 3.0912 3.1933z" color="#000000" fill="#ccc" opacity=".99026"/>
  <path d="m737.73 569.24 5.4853 0.0892c1.3294 0.0216 2.4183-1.1102 2.4415-2.5378l0.0477-2.933c0.0232-1.4276-1.0284-2.5942-2.3578-2.6158l-5.4853-0.0892c-1.3294-0.0216-2.4183 1.1102-2.4415 2.5378l-0.0477 2.933c-0.0232 1.4276 1.0283 2.5942 2.3578 2.6158z" color="#000000" fill="url(#a)" filter="url(#b)" opacity=".99026"/>
  <path d="m693.88 508.07c9.9229-1.2625 18.831 3.6314 39.886-25.206 7.2308 3.5786 39.819 30.215 87.803-7.5938l19.291 23.675c-24.754-6.036-39.397 7.7535-24.717 21.718-16.868 17.039-4.273 29.666 21.089 19.518l-21.011 24.18c-39.946-22.548-42.247-20.657-87.624-3.0899-15.193-25.245-32.184-17.14-35.401-18.567l0.68389-34.634z" color="#000000" opacity=".99026"/>
  <path d="m734.42 487.31c6.4258 3.0348 43.895 24.39 86.495-7.589l14.166 15.939c-21.993-5.1273-37.471 12.944-24.422 24.777-14.973 14.415-2.896 33.611 19.627 25.036l-15.163 14.747c-35.5-19.118-44.316-18.307-84.613-3.4641-13.514-21.385-30.943-16.607-33.802-17.818l0.56207-27.967c15.863-0.84352 23.259-4.7112 37.149-23.661z" color="#000000" fill="url(#j)" filter="url(#m)" opacity=".3"/>
  <path d="m747.77 517.87c-0.0242 1.1886-1.1596 2.5558-3.4063 4.1016 1.2876 0.72802 1.9255 1.3866 1.9135 1.9758-0.0213 1.0463-1.1288 2.0481-3.3225 3.0052-2.0177 0.87815-3.8417 1.3066-5.472 1.2855-1.3226-0.0172-2.1269-0.0581-2.4127-0.12283l-1.6991 1.8527c-0.16777 0.18072-0.3183 0.27023-0.45159 0.26849-0.0615-7.9e-4 -0.0913-0.052-0.0892-0.15358 4.2e-4 -0.0203 0.59869-0.69336 1.7948-2.0191-0.76506-0.20301-1.146-0.3807-1.1429-0.53308 5e-3 -0.22349 0.16595-0.34333 0.48421-0.35952 0.13349-8e-3 0.31722 0.0346 0.55118 0.1291 0.22392 0.0841 0.42302 0.12742 0.59733 0.12969l2.5578-3.2286c-1.6263-0.21418-2.4339-0.59556-2.4227-1.1441 0.011-0.5384 0.58407-0.98314 1.7193-1.3342 0.51616-0.16603 1.0778-0.29592 1.6848-0.38965 0.46303-0.0752 0.92084-0.14554 1.3734-0.21079 1.3366-1.6796 2.5502-2.8527 3.6406-3.5194 0.90338-0.54713 1.8728-0.81398 2.9084-0.80054 0.31783 4e-3 0.59772 0.1094 0.83968 0.31576 0.24212 0.19621 0.3601 0.4467 0.35391 0.75145m-0.63894 0.40323c5e-3 -0.26411-0.12337-0.48934-0.38622-0.67566-0.25262-0.18618-0.57886-0.28186-0.97871-0.28706-1.0253-0.0133-2.1023 0.496-3.2309 1.528-0.39728 0.37082-1.0692 1.1344-2.0157 2.2906 0.62544 8e-3 1.3616 0.1193 2.2085 0.33353 0.4589 0.1279 0.9178 0.2558 1.3767 0.38369 0.96943-0.76982 1.669-1.3806 2.0987-1.8323 0.60831-0.66274 0.91752-1.243 0.92766-1.7408m-3.8504 4.0044c-1.4067-0.42471-2.4534-0.64154-3.1404-0.65047l-1.5017 1.9772c0.90371-0.0593 1.8717-0.25512 2.9041-0.58719 0.82603-0.27379 1.4054-0.52031 1.738-0.73954m2.4069 1.9213c8e-3 -0.38602-0.28143-0.78608-0.86783-1.2002-0.52573-0.37264-0.93213-0.56081-1.2192-0.56455-1.576 0.84325-3.3775 1.4244-5.4044 1.7436l-2.6683 3.3643c0.61456 0.0385 1.373 0.0635 2.2752 0.0753 1.7738 0.023 3.5086-0.31007 5.2046-0.99934 1.7683-0.71881 2.6616-1.5252 2.6798-2.4192m-6.0398-2.5629c-0.41955-0.0461-1.3144 0.0846-2.6847 0.39191-0.80367 0.18263-1.2085 0.42124-1.2145 0.71584-5e-3 0.23364 0.32423 0.44623 0.98696 0.63774 0.5403 0.15944 1.0001 0.24163 1.3795 0.24655l1.5327-1.992" fill="#fff"/>
  <path d="m748.56 527.31c-7e-3 0.32508-0.23037 0.48475-0.67124 0.47902-0.41013-5e-3 -0.61188-0.17052-0.60527-0.4956 7e-3 -0.33524 0.22043-0.50013 0.6408-0.49467 0.16404 2e-3 0.31168 0.0548 0.44291 0.15818 0.13142 0.0932 0.19569 0.21084 0.1928 0.35307" fill="#fff"/>
  <path d="m763.93 517.5c-0.0213 1.0464-0.6832 2.0742-1.9857 3.0836-1.24 0.9594-2.3982 1.4321-3.4748 1.4181-0.1333-2e-3 -0.27622-0.0341-0.42877-0.097-0.20341-0.0839-0.30367-0.19701-0.30076-0.33923 3e-3 -0.1727 0.0836-0.32916 0.2403-0.46938 0.15668-0.14023 0.31192-0.20934 0.46573-0.20734 0.0758 0.30583 0.13853 0.4997 0.18814 0.58163 0.06 0.072 0.167 0.10887 0.32081 0.11087 0.64593 8e-3 1.322-0.2013 2.028-0.62907 0.74751-0.44754 1.2577-0.82197 1.5304-1.1233 0.46146-0.50206 0.69974-1.1239 0.71484-1.8655 0.0236-1.1581-0.69263-1.7466-2.1486-1.7655-1.2611-0.0164-2.6176 0.36738-4.0693 1.1513-1.4515 0.77374-2.6513 1.7743-3.5993 3.0017-1.053 1.348-1.5939 2.728-1.6226 4.14-0.0219 1.0768 0.29939 1.9193 0.9639 2.5275 0.6645 0.60815 1.5914 0.91995 2.7808 0.9354 0.68695 9e-3 1.4695-0.1435 2.3476-0.45726 0.43393-0.15694 0.93564-0.36889 1.5052-0.63585 0.45587-0.22779 0.6992-0.34149 0.72997-0.34109 0.0615 8e-4 0.0916 0.0367 0.0901 0.10787-4e-3 0.19301-0.44578 0.48704-1.3256 0.88206-1.5524 0.69113-2.8669 1.0297-3.9435 1.0157-1.1586-0.0151-2.0851-0.34718-2.7796-0.99636-0.69423-0.65935-1.0306-1.5173-1.0091-2.5738 0.03-1.473 0.62427-2.959 1.7829-4.458 1.0848-1.3983 2.4416-2.5543 4.0703-3.468 1.6289-0.92384 3.1509-1.3766 4.5658-1.3582 0.6972 9e-3 1.268 0.18415 1.7123 0.52523 0.4443 0.3411 0.66109 0.77579 0.65035 1.304" fill="#fff"/>
  <path d="m783.98 519.6c-0.0232 1.1378-0.86298 2.3412-2.5194 3.6101-1.1565 0.88935-2.8227 1.8788-4.9985 2.9682 0.9524 0.57125 2.5729 1.5729 4.8616 3.0049 0.28336 0.18659 0.85215 0.45817 1.7064 0.81475-2e-3 0.11175-0.0189 0.1725-0.0498 0.18226-0.0312 0.0199-0.14417 0.0286-0.33896 0.0261-0.86127-0.0112-3.2775-1.2213-7.2487-3.6303-0.36321 0.20867-1.0351 0.46921-2.0158 0.78164-1.1353 0.35105-2.0882 0.56223-2.8588 0.63351-0.81057 1.0259-1.7242 2.0759-2.7408 3.15-1.5616 1.6462-2.609 2.4658-3.1421 2.4589-0.1538-2e-3 -0.22811-0.12998-0.22295-0.38394 2e-3 -0.0813 0.06-0.17705 0.17506-0.28732 0.11485-0.10013 0.21329-0.14965 0.29532-0.14859 0.0615 8e-4 0.1381 0.017 0.22977 0.0487 0.0811 0.0417 0.14251 0.0526 0.18392 0.0328 1.5515-1.1484 3.138-2.7587 4.7595-4.8309-0.93282-0.0223-1.7882-0.32298-2.5661-0.90213-0.77791-0.57913-1.1597-1.2192-1.1455-1.9201 0.0145-0.7111 0.3241-1.3117 0.92891-1.8017 0.61525-0.50008 1.3484-0.74459 2.1994-0.73354 1.1278 0.0146 2.3754 0.44747 3.7426 1.2985 3.1812-4.1248 6.0175-6.1711 8.509-6.1387 0.64592 8e-3 1.1859 0.18307 1.62 0.52403 0.43424 0.33082 0.64632 0.7451 0.6362 1.2429m-0.74442 0.29517c8e-3 -0.38602-0.21613-0.71918-0.67192-0.99946-0.42569-0.24939-0.89997-0.37749-1.4228-0.38429-1.2714-0.0165-2.5696 0.53059-3.8947 1.6413-0.75146 0.64057-1.9991 1.9758-3.7428 4.0058 0.20112 0.19567 1.1169 0.80201 2.7474 1.819 1.865-0.93094 3.3967-1.8662 4.5952-2.8058 1.5736-1.2294 2.3701-2.3216 2.3896-3.2765m-8.0848 6.4643-2.1541-1.4912-2.0213 2.5649c1.0878-0.0367 2.4797-0.39457 4.1754-1.0737m-2.4881-1.709c-0.36292-0.30955-0.81329-0.605-1.3511-0.88635-0.77117-0.4063-1.4541-0.61332-2.0488-0.62104-0.71772-9e-3 -1.3264 0.16567-1.826 0.52499-0.49937 0.34916-0.75413 0.77263-0.76426 1.2704-0.0145 0.71111 0.44488 1.3217 1.378 1.8317 0.84191 0.45803 1.6784 0.67721 2.5095 0.65751l2.1025-2.7772" fill="#fff"/>
  <path d="m784.49 524.73c-5e-3 0.26413-0.19262 0.3938-0.56172 0.389-0.36912-5e-3 -0.55099-0.13925-0.54561-0.40338 6e-3 -0.27428 0.19292-0.40902 0.56204-0.40423 0.3691 5e-3 0.55087 0.14434 0.54529 0.41861m2.3009 1.0816c-1e-3 0.0609-0.0228 0.11149-0.0646 0.15158-1.0427 0.84002-1.694 1.3498-1.9541 1.5293-0.85315 0.5986-1.495 0.89511-1.9257 0.88951-0.27683-4e-3 -0.52637-0.0882-0.74863-0.25359-0.23272-0.15545-0.34691-0.33984-0.34257-0.55317 7e-3 -0.35555 0.20016-0.76458 0.57878-1.2271 0.35749-0.43229 0.65465-0.6723 0.89151-0.72004 0.12304 2e-3 0.18373 0.043 0.18208 0.12431-1e-3 0.0711-0.15436 0.27743-0.45872 0.61896-0.29411 0.34167-0.44417 0.6598-0.45016 0.9544-8e-3 0.38603 0.16252 0.58131 0.51112 0.58584 0.42038 5e-3 1.6298-0.71553 3.6284-2.163 0.0311-0.0199 0.062-0.0246 0.0926-0.014 0.0408 0.0107 0.0608 0.0363 0.0599 0.077" fill="#fff"/>
  <path d="m792.08 525.93c-1e-3 0.0508-0.28303 0.30116-0.84599 0.75111-0.53139 0.40971-0.92176 0.69424-1.1711 0.85359-1.2264 0.79697-2.3779 1.1885-3.4544 1.1745-0.38961-5e-3 -0.70518-0.12094-0.94671-0.34763-0.24152-0.22668-0.35898-0.50256-0.35236-0.82764 0.01-0.47745 0.3382-0.9965 0.98546-1.5571 0.69977-0.62091 1.429-0.92644 2.1877-0.91658 0.3281 4e-3 0.48936 0.14352 0.48379 0.41781-6e-3 0.28444-0.22146 0.55092-0.647 0.79943-0.38412 0.22872-0.70947 0.34135-0.97604 0.33788-0.21532-3e-3 -0.32195-0.0549-0.31987-0.15658 6e-3 -0.28443 0.15221-0.42479 0.4393-0.42106 0.041 5.3e-4 0.097 0.0216 0.16794 0.0631 0.0709 0.0415 0.1628 0.063 0.27559 0.0645 0.12304 2e-3 0.24752-0.0679 0.37345-0.20854 0.12593-0.14061 0.19003-0.2668 0.1923-0.37854 2e-3 -0.10159-0.11993-0.15398-0.366-0.15718-0.44089-6e-3 -0.91205 0.21678-1.4135 0.66753-0.49099 0.44072-0.7401 0.83886-0.74733 1.1944-5e-3 0.26412 0.10286 0.48908 0.32471 0.67487 0.22184 0.18577 0.51732 0.28107 0.88643 0.28586 0.58442 8e-3 1.2809-0.20182 2.0896-0.62826 0.52869-0.27766 1.1418-0.67107 1.8393-1.1802 0.57281-0.4295 0.87458-0.64404 0.90535-0.64365 0.0615 8e-4 0.0914 0.0469 0.0895 0.13834" fill="#fff"/>
  <path d="m800.24 519.01c-8e-3 0.40635-0.46886 1.1167-1.3817 2.1312-1.658 1.8482-3.3273 3.244-5.008 4.1875-0.28055 0.17926-0.56613 0.35338-0.85673 0.52235-0.32177 0.18888-0.74618 0.38152-1.2732 0.5779l-0.8393 1.178c0.16611-0.0995 0.98685-0.61719 2.4622-1.5532 0.52993-0.33859 0.8923-0.50663 1.0871-0.5041 0.13328 2e-3 0.19849 0.0736 0.19559 0.21593-1e-3 0.0507-0.13845 0.25223-0.41226 0.60433-0.26336 0.34206-0.39741 0.62992-0.40216 0.86356-4e-3 0.19302 0.019 0.32542 0.0688 0.39719 0.0696 0.11268 0.23754 0.17075 0.50411 0.17422 0.26658 3e-3 0.93575-0.37398 2.0075-1.1323 0.74917-0.52883 1.1238-0.79323 1.1238-0.79324 0.0512 6.7e-4 0.0759 0.0467 0.0741 0.13814-8.3e-4 0.0406-0.11066 0.14591-0.32948 0.3158-0.3544 0.27992-0.57866 0.46499-0.67279 0.55523-0.30292 0.27042-0.66725 0.53496-1.093 0.79362-0.63309 0.36775-1.1496 0.54902-1.5494 0.54383-0.56392-7e-3 -0.84092-0.2548-0.831-0.74241 4e-3 -0.1727 0.0455-0.47191 0.12596-0.89764-0.072 9e-3 -0.18037 0.0434-0.32515 0.10247-0.0831 0.0497-0.6293 0.43384-1.6387 1.1524-0.57218 0.39902-0.93517 0.59753-1.089 0.59554-0.082-1e-3 -0.122-0.0524-0.11993-0.15398 3e-3 -0.16254 0.18422-0.48535 0.54274-0.96844 0.63233-0.83518 1.0119-1.3434 1.1386-1.5247 0.90945-1.3498 2.2022-2.8877 3.8782-4.6137 1.8543-1.9167 3.0941-2.871 3.7195-2.8629 0.23582 3e-3 0.44466 0.0718 0.62654 0.20628 0.18206 0.12431 0.27103 0.28804 0.26691 0.49122m-0.64905 0.14398c6e-3 -0.27427-0.15056-0.41347-0.46839-0.41761-0.41013-5e-3 -0.99656 0.33763-1.7593 1.0288-0.48095 0.45103-1.2148 1.2341-2.2015 2.3492-1.0288 1.1654-1.7323 1.9691-2.1105 2.4113-0.6311 0.77423-0.97445 1.2677-1.0301 1.4803 0.43207-0.0655 1.2673-0.53733 2.5056-1.4154 1.2904-0.91808 2.412-1.8587 3.3649-2.8218 1.1204-1.1337 1.6868-2.0053 1.6992-2.6148" fill="#fff"/>
  <path d="m134.75 591.13c-0.0638 3.9268-3.2988 7.0582-7.2256 6.9944-3.9268-0.0638-7.0582-3.2988-6.9944-7.2256 0.0638-3.9267 3.2988-7.0582 7.2256-6.9944 3.9267 0.0638 7.0582 3.2988 6.9944 7.2256z" color="#000000" fill="url(#d)" opacity=".99026"/>
  <path d="m190.46 571.27c-0.0638 3.9268-3.2988 7.0582-7.2256 6.9944-3.9268-0.0638-7.0582-3.2988-6.9944-7.2256 0.0638-3.9267 3.2988-7.0582 7.2256-6.9944 3.9267 0.0638 7.0582 3.2988 6.9944 7.2256z" color="#000000" fill="url(#d)" opacity=".99026"/>
  <path d="m162.62 580.05c-0.0638 3.9268-3.2988 7.0582-7.2256 6.9944-3.9268-0.0638-7.0582-3.2988-6.9944-7.2256 0.0638-3.9267 3.2988-7.0582 7.2256-6.9944 3.9267 0.0638 7.0582 3.2988 6.9944 7.2256z" color="#000000" fill="url(#d)" opacity=".99026"/>
  <path d="m200.5 482.71 33.761 0.54884-0.96381 59.287-33.761-0.54885z" color="#000000" opacity=".99026" stroke="#e6e6e6" stroke-width=".22017"/>
  <path d="m210.71 486.16c3.6143 0.0588 6.4696 3.4509 6.4021 7.6058l-0.62515 38.455c-0.0675 4.1548-3.0316 7.4524-6.6459 7.3936-3.6143-0.0588-6.4696-3.4509-6.4021-7.6058l0.62516-38.455c0.0675-4.1548 3.0316-7.4524 6.6459-7.3936z" color="#000000" fill="#1a1a1a" opacity=".99026"/>
  <path d="m212.41 494.18c-0.0162 0.99625-0.83694 1.7907-1.8332 1.7745s-1.7907-0.83694-1.7745-1.8332 0.83694-1.7907 1.8332-1.7745 1.7907 0.83694 1.7745 1.8332z" color="#000000" fill="#ccc" opacity=".99026"/>
  <path d="m212.27 502.51c-0.0162 0.99625-0.83694 1.7907-1.8332 1.7745s-1.7907-0.83694-1.7745-1.8332 0.83694-1.7907 1.8332-1.7745 1.7907 0.83694 1.7745 1.8332z" color="#000000" fill="#ccc" opacity=".99026"/>
  <path d="m212.15 510.15c-0.0162 0.99625-0.83694 1.7907-1.8332 1.7745s-1.7907-0.83694-1.7745-1.8332 0.83694-1.7907 1.8332-1.7745 1.7907 0.83694 1.7745 1.8332z" color="#000000" fill="#ccc" opacity=".99026"/>
  <path d="m212.01 518.63c-0.0162 0.99625-0.83694 1.7907-1.8332 1.7745s-1.7907-0.83694-1.7745-1.8332 0.83694-1.7907 1.8332-1.7745 1.7907 0.83694 1.7745 1.8332z" color="#000000" fill="#ccc" opacity=".99026"/>
  <path d="m211.89 525.67c-0.0162 0.99625-0.83694 1.7907-1.8332 1.7745s-1.7907-0.83694-1.7745-1.8332 0.83694-1.7907 1.8332-1.7745 1.7907 0.83694 1.7745 1.8332z" color="#000000" fill="#ccc" opacity=".99026"/>
  <path d="m211.77 533.42c-0.0162 0.99625-0.83694 1.7907-1.8332 1.7745s-1.7907-0.83694-1.7745-1.8332 0.83694-1.7907 1.8332-1.7745 1.7907 0.83694 1.7745 1.8332z" color="#000000" fill="#ccc" opacity=".99026"/>
  <path d="m210.71 486.16c3.6143 0.0588 6.4696 3.4509 6.4021 7.6058l-0.62515 38.455c-0.0675 4.1548-3.0316 7.4524-6.6459 7.3936-3.6143-0.0588-6.4696-3.4509-6.4021-7.6058l0.62516-38.455c0.0675-4.1548 3.0316-7.4524 6.6459-7.3936z" color="#000000" fill="#1a1a1a" opacity=".99026" stroke="#000" stroke-width=".23073"/>
  <path d="m212.41 494.18c-0.0162 0.99625-0.83694 1.7907-1.8332 1.7745s-1.7907-0.83694-1.7745-1.8332 0.83694-1.7907 1.8332-1.7745 1.7907 0.83694 1.7745 1.8332z" color="#000000" fill="#ccc" opacity=".99026" stroke="#000" stroke-width=".2"/>
  <path d="m212.27 502.51c-0.0162 0.99625-0.83694 1.7907-1.8332 1.7745s-1.7907-0.83694-1.7745-1.8332 0.83694-1.7907 1.8332-1.7745 1.7907 0.83694 1.7745 1.8332z" color="#000000" fill="#ccc" opacity=".99026" stroke="#000" stroke-width=".2"/>
  <path d="m212.15 510.15c-0.0162 0.99625-0.83694 1.7907-1.8332 1.7745s-1.7907-0.83694-1.7745-1.8332 0.83694-1.7907 1.8332-1.7745 1.7907 0.83694 1.7745 1.8332z" color="#000000" fill="#ccc" opacity=".99026" stroke="#000" stroke-width=".2"/>
  <path d="m212.01 518.63c-0.0162 0.99625-0.83694 1.7907-1.8332 1.7745s-1.7907-0.83694-1.7745-1.8332 0.83694-1.7907 1.8332-1.7745 1.7907 0.83694 1.7745 1.8332z" color="#000000" fill="#ccc" opacity=".99026" stroke="#000" stroke-width=".2"/>
  <path d="m211.89 525.67c-0.0162 0.99625-0.83694 1.7907-1.8332 1.7745s-1.7907-0.83694-1.7745-1.8332 0.83694-1.7907 1.8332-1.7745 1.7907 0.83694 1.7745 1.8332z" color="#000000" fill="#ccc" opacity=".99026" stroke="#000" stroke-width=".2"/>
  <path d="m211.77 533.42c-0.0162 0.99625-0.83694 1.7907-1.8332 1.7745s-1.7907-0.83694-1.7745-1.8332 0.83694-1.7907 1.8332-1.7745 1.7907 0.83694 1.7745 1.8332z" color="#000000" fill="#ccc" opacity=".99026" stroke="#000" stroke-width=".2"/>
  <path d="m223.95 486.37c3.6143 0.0588 6.4696 3.4509 6.4021 7.6058l-0.62515 38.455c-0.0675 4.1548-3.0316 7.4524-6.6459 7.3936-3.6143-0.0588-6.4696-3.4509-6.4021-7.6058l0.62516-38.455c0.0675-4.1548 3.0316-7.4524 6.6459-7.3936z" color="#000000" fill="#1a1a1a" opacity=".99026" stroke="#000" stroke-width=".23073"/>
  <path d="m225.65 494.4c-0.0162 0.99625-0.83694 1.7907-1.8332 1.7745s-1.7907-0.83694-1.7745-1.8332 0.83694-1.7907 1.8332-1.7745 1.7907 0.83694 1.7745 1.8332z" color="#000000" fill="#ccc" opacity=".99026" stroke="#000" stroke-width=".2"/>
  <path d="m225.52 502.72c-0.0162 0.99625-0.83694 1.7907-1.8332 1.7745s-1.7907-0.83694-1.7745-1.8332 0.83694-1.7907 1.8332-1.7745 1.7907 0.83694 1.7745 1.8332z" color="#000000" fill="#ccc" opacity=".99026" stroke="#000" stroke-width=".2"/>
  <path d="m225.39 510.37c-0.0162 0.99625-0.83694 1.7907-1.8332 1.7745s-1.7907-0.83694-1.7745-1.8332 0.83694-1.7907 1.8332-1.7745 1.7907 0.83694 1.7745 1.8332z" color="#000000" fill="#ccc" opacity=".99026" stroke="#000" stroke-width=".2"/>
  <path d="m225.25 518.85c-0.0162 0.99625-0.83694 1.7907-1.8332 1.7745s-1.7907-0.83694-1.7745-1.8332 0.83694-1.7907 1.8332-1.7745 1.7907 0.83694 1.7745 1.8332z" color="#000000" fill="#ccc" opacity=".99026" stroke="#000" stroke-width=".2"/>
  <path d="m225.14 525.88c-0.0162 0.99625-0.83694 1.7907-1.8332 1.7745s-1.7907-0.83694-1.7745-1.8332 0.83694-1.7907 1.8332-1.7745 1.7907 0.83694 1.7745 1.8332z" color="#000000" fill="#ccc" opacity=".99026" stroke="#000" stroke-width=".2"/>
  <path d="m225.01 533.64c-0.0162 0.99625-0.83694 1.7907-1.8332 1.7745s-1.7907-0.83694-1.7745-1.8332 0.83694-1.7907 1.8332-1.7745 1.7907 0.83694 1.7745 1.8332z" color="#000000" fill="#ccc" opacity=".99026" stroke="#000" stroke-width=".2"/>
  <path d="m266.07 487.06c3.6143 0.0588 6.4696 3.4509 6.4021 7.6058l-0.62516 38.455c-0.0675 4.1548-3.0316 7.4524-6.6459 7.3936-3.6143-0.0588-6.4696-3.4509-6.4021-7.6058l0.62515-38.455c0.0675-4.1548 3.0316-7.4524 6.6459-7.3936z" color="#000000" fill="#1a1a1a" opacity=".99026"/>
  <path d="m267.78 495.08c-0.0162 0.99625-0.83694 1.7907-1.8332 1.7745s-1.7907-0.83694-1.7745-1.8332 0.83694-1.7907 1.8332-1.7745 1.7907 0.83694 1.7745 1.8332z" color="#000000" fill="#ccc" opacity=".99026"/>
  <path d="m267.64 503.41c-0.0162 0.99625-0.83694 1.7907-1.8332 1.7745s-1.7907-0.83694-1.7745-1.8332 0.83694-1.7907 1.8332-1.7745 1.7907 0.83694 1.7745 1.8332z" color="#000000" fill="#ccc" opacity=".99026"/>
  <path d="m267.52 511.05c-0.0162 0.99625-0.83694 1.7907-1.8332 1.7745s-1.7907-0.83694-1.7745-1.8332 0.83694-1.7907 1.8332-1.7745 1.7907 0.83694 1.7745 1.8332z" color="#000000" fill="#ccc" opacity=".99026"/>
  <path d="m267.38 519.53c-0.0162 0.99625-0.83694 1.7907-1.8332 1.7745s-1.7907-0.83694-1.7745-1.8332 0.83694-1.7907 1.8332-1.7745 1.7907 0.83694 1.7745 1.8332z" color="#000000" fill="#ccc" opacity=".99026"/>
  <path d="m267.26 526.57c-0.0162 0.99625-0.83694 1.7907-1.8332 1.7745s-1.7907-0.83694-1.7745-1.8332 0.83694-1.7907 1.8332-1.7745 1.7907 0.83694 1.7745 1.8332z" color="#000000" fill="#ccc" opacity=".99026"/>
  <path d="m267.14 534.32c-0.0162 0.99625-0.83694 1.7907-1.8332 1.7745s-1.7907-0.83694-1.7745-1.8332 0.83694-1.7907 1.8332-1.7745 1.7907 0.83694 1.7745 1.8332z" color="#000000" fill="#ccc" opacity=".99026"/>
  <path d="m256.16 483.62 33.761 0.54885-0.96381 59.287-33.761-0.54885z" color="#000000" opacity=".99026" stroke="#e6e6e6" stroke-width=".22017"/>
  <path d="m266.07 487.06c3.6143 0.0588 6.4696 3.4509 6.4021 7.6058l-0.62516 38.455c-0.0675 4.1548-3.0316 7.4524-6.6459 7.3936-3.6143-0.0588-6.4696-3.4509-6.4021-7.6058l0.62515-38.455c0.0675-4.1548 3.0316-7.4524 6.6459-7.3936z" color="#000000" fill="#1a1a1a" opacity=".99026" stroke="#000" stroke-width=".23073"/>
  <path d="m267.78 495.08c-0.0162 0.99625-0.83694 1.7907-1.8332 1.7745s-1.7907-0.83694-1.7745-1.8332 0.83694-1.7907 1.8332-1.7745 1.7907 0.83694 1.7745 1.8332z" color="#000000" fill="#ccc" opacity=".99026" stroke="#000" stroke-width=".2"/>
  <path d="m267.64 503.41c-0.0162 0.99625-0.83694 1.7907-1.8332 1.7745s-1.7907-0.83694-1.7745-1.8332 0.83694-1.7907 1.8332-1.7745 1.7907 0.83694 1.7745 1.8332z" color="#000000" fill="#ccc" opacity=".99026" stroke="#000" stroke-width=".2"/>
  <path d="m267.52 511.05c-0.0162 0.99625-0.83694 1.7907-1.8332 1.7745s-1.7907-0.83694-1.7745-1.8332 0.83694-1.7907 1.8332-1.7745 1.7907 0.83694 1.7745 1.8332z" color="#000000" fill="#ccc" opacity=".99026" stroke="#000" stroke-width=".2"/>
  <path d="m267.38 519.53c-0.0162 0.99625-0.83694 1.7907-1.8332 1.7745s-1.7907-0.83694-1.7745-1.8332 0.83694-1.7907 1.8332-1.7745 1.7907 0.83694 1.7745 1.8332z" color="#000000" fill="#ccc" opacity=".99026" stroke="#000" stroke-width=".2"/>
  <path d="m267.26 526.57c-0.0162 0.99625-0.83694 1.7907-1.8332 1.7745s-1.7907-0.83694-1.7745-1.8332 0.83694-1.7907 1.8332-1.7745 1.7907 0.83694 1.7745 1.8332z" color="#000000" fill="#ccc" opacity=".99026" stroke="#000" stroke-width=".2"/>
  <path d="m267.14 534.32c-0.0162 0.99625-0.83694 1.7907-1.8332 1.7745s-1.7907-0.83694-1.7745-1.8332 0.83694-1.7907 1.8332-1.7745 1.7907 0.83694 1.7745 1.8332z" color="#000000" fill="#ccc" opacity=".99026" stroke="#000" stroke-width=".2"/>
  <path d="m279.32 487.27c3.6143 0.0588 6.4696 3.4509 6.4021 7.6058l-0.62516 38.455c-0.0675 4.1548-3.0316 7.4524-6.6459 7.3936-3.6143-0.0588-6.4696-3.4509-6.4021-7.6058l0.62515-38.455c0.0675-4.1548 3.0316-7.4524 6.6459-7.3936z" color="#000000" fill="#1a1a1a" opacity=".99026" stroke="#000" stroke-width=".23073"/>
  <path d="m281.02 495.3c-0.0162 0.99625-0.83694 1.7907-1.8332 1.7745s-1.7907-0.83694-1.7745-1.8332 0.83694-1.7907 1.8332-1.7745 1.7907 0.83694 1.7745 1.8332z" color="#000000" fill="#ccc" opacity=".99026" stroke="#000" stroke-width=".2"/>
  <path d="m280.88 503.62c-0.0162 0.99625-0.83694 1.7907-1.8332 1.7745s-1.7907-0.83694-1.7745-1.8332 0.83694-1.7907 1.8332-1.7745 1.7907 0.83694 1.7745 1.8332z" color="#000000" fill="#ccc" opacity=".99026" stroke="#000" stroke-width=".2"/>
  <path d="m280.76 511.27c-0.0162 0.99625-0.83694 1.7907-1.8332 1.7745s-1.7907-0.83694-1.7745-1.8332 0.83694-1.7907 1.8332-1.7745 1.7907 0.83694 1.7745 1.8332z" color="#000000" fill="#ccc" opacity=".99026" stroke="#000" stroke-width=".2"/>
  <path d="m280.62 519.75c-0.0162 0.99625-0.83694 1.7907-1.8332 1.7745s-1.7907-0.83694-1.7745-1.8332 0.83694-1.7907 1.8332-1.7745 1.7907 0.83694 1.7745 1.8332z" color="#000000" fill="#ccc" opacity=".99026" stroke="#000" stroke-width=".2"/>
  <path d="m280.51 526.78c-0.0162 0.99625-0.83694 1.7907-1.8332 1.7745s-1.7907-0.83694-1.7745-1.8332 0.83694-1.7907 1.8332-1.7745 1.7907 0.83694 1.7745 1.8332z" color="#000000" fill="#ccc" opacity=".99026" stroke="#000" stroke-width=".2"/>
  <path d="m280.38 534.54c-0.0162 0.99625-0.83694 1.7907-1.8332 1.7745s-1.7907-0.83694-1.7745-1.8332 0.83694-1.7907 1.8332-1.7745 1.7907 0.83694 1.7745 1.8332z" color="#000000" fill="#ccc" opacity=".99026" stroke="#000" stroke-width=".2"/>
  <path d="m665.06 506.77-0.57557 35.405" fill="#e6e6e6" stroke="#e6e6e6" stroke-width="1.1622px"/>
  <path d="m637.39 505.62-0.58682 36.097" fill="#e6e6e6" stroke="#e6e6e6" stroke-width="1.1735px"/>
  <path d="m612.02 504.5-0.59807 36.789" fill="#e6e6e6" stroke="#e6e6e6" stroke-width="1.1847px"/>
  <path d="m588.2 503.59-0.60649 37.308" fill="#e6e6e6" stroke="#e6e6e6" stroke-width="1.1931px"/>
  <path d="m564.76 502.5-0.61495 37.827" fill="#e6e6e6" stroke="#e6e6e6" stroke-width="1.2013px"/>
  <path d="m543.61 501.63-0.62338 38.346" fill="#e6e6e6" stroke="#e6e6e6" stroke-width="1.2095px"/>
  <path d="m523.25 500.77-0.63182 38.865" fill="#e6e6e6" stroke="#e6e6e6" stroke-width="1.2177px"/>
  <path d="m504.04 500.1-0.63462 39.038" fill="#e6e6e6" stroke="#e6e6e6" stroke-width="1.2204px"/>
  <path d="m485.19 499.27-0.64307 39.557" fill="#e6e6e6" stroke="#e6e6e6" stroke-width="1.2285px"/>
  <path d="m469.4 498.48-0.65151 40.076" fill="#e6e6e6" stroke="#e6e6e6" stroke-width="1.2365px"/>
  <path d="m452.86 497.86-0.65431 40.249" fill="#e6e6e6" stroke="#e6e6e6" stroke-width="1.2392px"/>
  <path d="m437.87 497.26-0.65995 40.595" fill="#e6e6e6" stroke="#e6e6e6" stroke-width="1.2445px"/>
  <path d="m423.64 496.68-0.66557 40.941" fill="#e6e6e6" stroke="#e6e6e6" stroke-width="1.2498px"/>
  <path d="m409.8 496.1-0.67117 41.287" fill="#e6e6e6" stroke="#e6e6e6" stroke-width="1.2551px"/>
  <path d="m396.74 495.54-0.67681 41.633" fill="#e6e6e6" stroke="#e6e6e6" stroke-width="1.2603px"/>
  <path d="m384.46 494.99-0.68245 41.979" fill="#e6e6e6" stroke="#e6e6e6" stroke-width="1.2655px"/>
  <path d="m373.26 494.57-0.68438 42.099" fill="#e6e6e6" stroke="#e6e6e6" stroke-width="1.2662px"/>
  <path d="m362.91 494.05-0.69002 42.446" fill="#e6e6e6" stroke="#e6e6e6" stroke-width="1.2714px"/>
  <path d="m352.17 493.52-0.69568 42.793" fill="#e6e6e6" stroke="#e6e6e6" stroke-width="1.2766px"/>
  <path d="m342.58 493.19-0.69849 42.966" fill="#e6e6e6" stroke="#e6e6e6" stroke-width="1.2792px"/>
  <path d="m333.37 492.86-0.7013 43.14" fill="#e6e6e6" stroke="#e6e6e6" stroke-width="1.2818px"/>
  <path d="m324.94 492.37-0.70695 43.486" fill="#e6e6e6" stroke="#e6e6e6" stroke-width="1.2869px"/>
  <path d="m316.88 492.24-0.70694 43.486" fill="#e6e6e6" stroke="#e6e6e6" stroke-width="1.2869px"/>
  <path d="m309.98 491.78-0.71259 43.833" fill="#e6e6e6" stroke="#e6e6e6" stroke-width="1.2921px"/>
  <path d="m625.5 523.23c-0.0143 0.88231-0.74122 1.5859-1.6235 1.5716-0.88231-0.0144-1.5859-0.74122-1.5716-1.6235 0.0143-0.8823 0.74122-1.5859 1.6235-1.5716 0.8823 0.0143 1.5859 0.74122 1.5716 1.6235z" color="#000000" fill="#fff" opacity=".99026" stroke="#e6e6e6" stroke-width=".2"/>
  <path d="m577.53 521.49c-0.0144 0.88231-0.74122 1.5859-1.6235 1.5716-0.88231-0.0144-1.5859-0.74122-1.5716-1.6235 0.0143-0.8823 0.74122-1.5859 1.6235-1.5716 0.8823 0.0143 1.5859 0.74122 1.5716 1.6235z" color="#000000" fill="#fff" opacity=".99026" stroke="#e6e6e6" stroke-width=".2"/>
  <path d="m533.78 520.21c-0.0144 0.88231-0.74122 1.5859-1.6235 1.5716-0.88231-0.0144-1.5859-0.74122-1.5716-1.6235 0.0143-0.8823 0.74122-1.5859 1.6235-1.5716 0.8823 0.0143 1.5859 0.74122 1.5716 1.6235z" color="#000000" fill="#fff" opacity=".99026" stroke="#e6e6e6" stroke-width=".2"/>
  <path d="m495.59 519.39c-0.0143 0.88231-0.74122 1.5859-1.6235 1.5716-0.88231-0.0143-1.5859-0.74122-1.5716-1.6235 0.0143-0.8823 0.74122-1.5859 1.6235-1.5716 0.8823 0.0143 1.5859 0.74122 1.5716 1.6235z" color="#000000" fill="#fff" opacity=".99026" stroke="#e6e6e6" stroke-width=".2"/>
  <path d="m446.68 504.2c-0.0143 0.88231-0.74122 1.5859-1.6235 1.5716-0.88231-0.0144-1.5859-0.74122-1.5716-1.6235 0.0143-0.8823 0.74122-1.5859 1.6235-1.5716 0.8823 0.0143 1.5859 0.74122 1.5716 1.6235z" color="#000000" fill="#fff" opacity=".99026" stroke="#e6e6e6" stroke-width=".2"/>
  <path d="m446.37 531.64c-0.0143 0.88231-0.74122 1.5859-1.6235 1.5716-0.88231-0.0143-1.5859-0.74122-1.5716-1.6235 0.0143-0.8823 0.74122-1.5859 1.6235-1.5716 0.8823 0.0143 1.5859 0.74122 1.5716 1.6235z" color="#000000" fill="#fff" opacity=".99026" stroke="#e6e6e6" stroke-width=".2"/>
  <path d="m404.43 516.76c-0.0143 0.88231-0.74122 1.5859-1.6235 1.5716-0.88231-0.0144-1.5859-0.74122-1.5716-1.6235 0.0143-0.8823 0.74122-1.5859 1.6235-1.5716 0.8823 0.0143 1.5859 0.74122 1.5716 1.6235z" color="#000000" fill="#fff" opacity=".99026" stroke="#e6e6e6" stroke-width=".2"/>
  <path d="m379.87 515.78c-0.0143 0.88231-0.74122 1.5859-1.6235 1.5716-0.88231-0.0143-1.5859-0.74122-1.5716-1.6235 0.0143-0.8823 0.74122-1.5859 1.6235-1.5716 0.8823 0.0143 1.5859 0.74122 1.5716 1.6235z" color="#000000" fill="#fff" opacity=".99026" stroke="#e6e6e6" stroke-width=".2"/>
  <path d="m358.58 515.05c-0.0143 0.88231-0.74122 1.5859-1.6235 1.5716-0.88231-0.0144-1.5859-0.74122-1.5716-1.6235 0.0143-0.8823 0.74122-1.5859 1.6235-1.5716 0.8823 0.0143 1.5859 0.74122 1.5716 1.6235z" color="#000000" fill="#fff" opacity=".99026" stroke="#e6e6e6" stroke-width=".2"/>
  <path d="m339.39 514.36c-0.0143 0.88231-0.74122 1.5859-1.6235 1.5716-0.88231-0.0143-1.5859-0.74122-1.5716-1.6235 0.0143-0.8823 0.74122-1.5859 1.6235-1.5716 0.8823 0.0143 1.5859 0.74122 1.5716 1.6235z" color="#000000" fill="#fff" opacity=".99026" stroke="#e6e6e6" stroke-width=".2"/>
  <path d="m314.9 497.07c-0.0144 0.88231-0.74122 1.5859-1.6235 1.5716-0.88231-0.0144-1.5859-0.74122-1.5716-1.6235 0.0143-0.8823 0.74122-1.5859 1.6235-1.5716 0.8823 0.0143 1.5859 0.74122 1.5716 1.6235z" color="#000000" fill="#fff" opacity=".99026" stroke="#e6e6e6" stroke-width=".2"/>
  <path d="m314.37 529.69c-0.0144 0.88231-0.74122 1.5859-1.6235 1.5716-0.88231-0.0143-1.5859-0.74122-1.5716-1.6235 0.0143-0.8823 0.74122-1.5859 1.6235-1.5716 0.8823 0.0143 1.5859 0.74122 1.5716 1.6235z" color="#000000" fill="#fff" opacity=".99026" stroke="#e6e6e6" stroke-width=".2"/>
  <path d="m146.53 487.07 26.593 0.43231c2.3092 0.0375 4.1331 2.2272 4.0895 4.9095l-0.65756 40.448c-0.0436 2.6823-1.9377 4.8115-4.2469 4.774l-26.593-0.4323c-2.3092-0.0375-4.1331-2.2272-4.0895-4.9095l0.65755-40.448c0.0436-2.6823 1.9377-4.8115 4.2469-4.774z" color="#000000" fill="url(#i)" opacity=".99026"/>
  <path d="m694.07 514.48c10.577 0.17194 33.324 0.73564 33.157 11.008-0.17301 10.642-26.447 9.7637-33.493 9.6492l0.33582-20.657z" color="#000000" opacity=".99026"/>
  <path d="m702.5 524.04 0.52343 7e-3 -0.0162 0.8644-0.0487 2.6051-0.74675-0.0105-0.84149-2.409-0.98699 2.3832-0.71884-0.0102 0.025-1.3353 0.0399-2.1342 0.52343 7e-3 -0.0239 1.2757-0.0161 0.85844-8e-3 0.41729 1.0038-2.5379 0.34894 5e-3 0.89443 2.5648 0.0477-2.5514" fill="#fff"/>
  <path d="m705.2 525.43-0.17691-0.43183-0.63858-9e-3 0.39403-0.91272 0.26521 4e-3 0.2652 4e-3 1.3169 3.489-0.52342-7e-3 -0.56823-1.3437-0.27916-4e-3 -0.31406-4e-3 -0.45363-6e-3 -0.63215 1.3268-0.52342-7e-3 0.89113-2.1102 0.59321 8e-3 0.38385 5e-3" fill="#fff"/>
  <path d="m709.09 526.27-1.5354-0.0217-7e-3 0.39345-0.0176 0.94189-0.52342-7e-3 0.0162-0.86439 0.0242-1.2936 2.7497 0.0388 7e-3 -0.39344-2.7497-0.0388 0.0172-0.91804 0.65952 9e-3 1.9749 0.0344c0.1885-1e-3 0.34412 0.0764 0.46684 0.23319 0.12279 0.1528 0.18133 0.38219 0.17561 0.68821l-7e-3 0.39345c-6e-3 0.30204-0.0655 0.51387-0.17943 0.63549-0.11165 0.1217-0.27797 0.18093-0.49896 0.17781l0.63802 1.3447-0.57228-8e-3 -0.63802-1.3447" fill="#fff"/>
  <path d="m713.52 526.73 0.46061 7e-3 -0.0176 0.94189-0.6595-9e-3 -1.975-0.0279c-0.18378-3e-3 -0.33808-0.0883-0.46291-0.25698-0.12475-0.1727-0.18489-0.37828-0.18043-0.61673l0.0326-1.7407 0.0162-0.86439 0.52342 7e-3 -0.0259 1.383-0.0125 0.66767c-2e-3 0.12716 0.0374 0.23904 0.11937 0.3356 0.082 0.0966 0.18576 0.14574 0.31138 0.14752l1.3749 0.0194 0.4955 7e-3" fill="#fff"/>
  <path d="m714.35 526.82 0.0326-1.7407c4e-3 -0.23845 0.0722-0.44023 0.20329-0.60535 0.13115-0.16908 0.28861-0.25232 0.47239-0.24972l1.9749 0.0344c0.18377 3e-3 0.33803 0.0903 0.46279 0.26294 0.12482 0.16873 0.185 0.37232 0.18054 0.61077l-0.0324 1.7348c-4e-3 0.23845-0.0722 0.44222-0.2034 0.61131-0.13108 0.16511-0.2885 0.24636-0.47228 0.24377l-1.975-0.0279c-0.18378-3e-3 -0.33808-0.0883-0.46291-0.25698-0.12475-0.17271-0.18489-0.37828-0.18043-0.61674m2.7847-0.52713 0.0125-0.66767c-0.0141-0.11941-0.0609-0.22546-0.14066-0.31803-0.0797-0.0925-0.18121-0.1397-0.3045-0.14144l-1.3539-0.0191c-0.12329-2e-3 -0.22767 0.0425-0.31312 0.13272-0.0855 0.0903-0.13171 0.1989-0.13874 0.32601l-0.0125 0.66767c-2e-3 0.12716 0.0374 0.23904 0.11937 0.3356 0.082 0.0966 0.18576 0.14574 0.31138 0.14751l1.3749 0.0194c0.11165 2e-3 0.21258-0.0447 0.30277-0.13884 0.0926-0.098 0.1401-0.21268 0.14256-0.34383" fill="#fff"/>
  <path d="m720.85 526.83 0.46061 7e-3 -0.0176 0.94189-0.65951-9e-3 -1.975-0.0279c-0.18378-3e-3 -0.33808-0.0883-0.46291-0.25698-0.12475-0.1727-0.18489-0.37828-0.18043-0.61673l0.0326-1.7407c4e-3 -0.23845 0.0722-0.44023 0.20329-0.60535 0.13115-0.16908 0.28861-0.25232 0.47239-0.24972l1.9749 0.0344 0.65962 3e-3 -0.0172 0.91804-2.3275-0.0329c-0.12329-2e-3 -0.22767 0.0425-0.31313 0.13271-0.0855 0.0903-0.1317 0.19891-0.13873 0.32601l-0.0125 0.66767c-2e-3 0.12716 0.0374 0.23905 0.11937 0.3356 0.082 0.0966 0.18576 0.14574 0.31138 0.14752l1.3749 0.0194 0.4955 7e-3" fill="#fff"/>
  <path d="m722.19 527.79-0.52341-7e-3 0.0406-2.1699 7e-3 -0.38153 0.0172-0.91804 0.52341 7e-3 -0.0473 2.5276-0.0176 0.94189m1.5604-1.3136-1.2911-0.0182 0.0149-0.79881 0.64904 9e-3 0.64207 9e-3 0.68798-1.326 0.57227 8e-3 -0.87657 1.7049 0.81167 1.7646-0.57228-8e-3 -0.63802-1.3447" fill="#fff"/>
  <path d="m742.5 495.14c-2.2292-0.0362-4.0792 1.7382-4.1156 3.9715-9e-3 0.57062 0.12146 1.1044 0.32626 1.6001 2.3493-1.2703 4.706-2.5271 7.0566-3.7951-0.71317-1.0541-1.8998-1.7543-3.2673-1.7765z" color="#000000" fill="#ccc" opacity=".99026"/>
  <path d="m746.09 497.46c-2.3626 1.2756-4.7206 2.5691-7.0825 3.8461 0.69992 1.1297 1.9401 1.8836 3.3658 1.9067 2.2292 0.0362 4.0541-1.7386 4.0904-3.9719 0.0104-0.6391-0.11893-1.2393-0.37363-1.7809z" color="#000000" fill="#ccc" opacity=".99026"/>
  <path d="m764.66 499.56c-1.9044 1.1972-2.5216 3.6969-1.3601 5.5808 0.29676 0.48135 0.69219 0.85487 1.13 1.1558 1.3085-2.3538 2.6304-4.7005 3.9414-7.053-1.1658-0.48709-2.543-0.41806-3.7112 0.31633z" color="#000000" fill="#ccc" opacity=".99026"/>
  <path d="m768.93 499.52c-1.3169 2.3656-2.6204 4.7436-3.936 7.1099 1.1949 0.55746 2.646 0.50376 3.864-0.26192 1.9044-1.1972 2.5001-3.6834 1.3386-5.5673-0.33238-0.53913-0.76207-0.96889-1.2666-1.2806z" color="#000000" fill="#ccc" opacity=".99026"/>
  <path d="m788.25 500.6c-0.0806 2.2281 1.6565 4.1116 3.8886 4.1906 0.57033 0.0196 1.1066-0.10037 1.6063-0.29565-1.2232-2.3731-2.4328-4.7533-3.6536-7.1276-1.0681 0.69291-1.7918 1.8659-1.8414 3.2327z" color="#000000" fill="#ccc" opacity=".99026"/>
  <path d="m790.64 497.06c1.2282 2.3865 2.4744 4.7688 3.7041 7.1546 1.1435-0.67822 1.9219-1.9038 1.9735-3.3287 0.0806-2.2281-1.6574-4.0865-3.8896-4.1654-0.63876-0.0225-1.2414 0.0952-1.788 0.33958z" color="#000000" fill="#ccc" opacity=".99026"/>
  <path d="m761.51 541.5c-0.0806 2.2281 1.6565 4.1116 3.8886 4.1906 0.57034 0.0196 1.1066-0.10037 1.6063-0.29565-1.2232-2.3731-2.4328-4.7533-3.6536-7.1276-1.0681 0.69291-1.7918 1.866-1.8414 3.2327z" color="#000000" fill="#ccc" opacity=".99026"/>
  <path d="m763.9 537.96c1.2282 2.3865 2.4744 4.7688 3.7041 7.1546 1.1435-0.67822 1.9219-1.9038 1.9735-3.3287 0.0806-2.2281-1.6574-4.0865-3.8896-4.1654-0.63876-0.0225-1.2414 0.0952-1.788 0.33956z" color="#000000" fill="#ccc" opacity=".99026"/>
  <path d="m795.17 539.31c-1.4216-1.7485-3.9731-2.0568-5.6944-0.67049-0.4398 0.35423-0.76061 0.7934-1.0043 1.2659 2.4928 1.014 4.9802 2.0422 7.4721 3.0587 0.33774-1.2196 0.0986-2.5816-0.77335-3.6541z" color="#000000" fill="#ccc" opacity=".99026"/>
  <path d="m795.74 543.56c-2.5056-1.021-5.0217-2.027-7.5278-3.0465-0.40387 1.2572-0.17073 2.6946 0.73839 3.8128 1.4215 1.7484 3.957 2.037 5.6784 0.65074 0.49258-0.39674 0.86487-0.87688 1.111-1.4171z" color="#000000" fill="#ccc" opacity=".99026"/>
  <path d="m741.23 544.69c-2.2013-0.3705-4.2877 1.1059-4.6448 3.3084-0.0911 0.56274-0.0386 1.11 0.0928 1.6309 2.508-0.90315 5.0215-1.7918 7.5305-2.6924-0.55429-1.1492-1.6281-2.0196-2.9785-2.2468z" color="#000000" fill="#ccc" opacity=".99026"/>
  <path d="m744.45 547.52c-2.522 0.90636-5.042 1.8311-7.5636 2.7389 0.53031 1.2219 1.6494 2.1534 3.0573 2.3903 2.2013 0.37049 4.2628-1.1101 4.62-3.3126 0.1021-0.63026 0.0606-1.243-0.11364-1.8167z" color="#000000" fill="#ccc" opacity=".99026"/>
  <path d="m693.68 507.84 3.7335 0.0607-1.3098 34.798-3.7336-0.0607z" color="#000000" fill="#1a1a1a" opacity=".99026"/>
  <path d="m693.23 512.71 4.3835 0.0713" fill="#4d4d4d" stroke="#4d4d4d" stroke-width="1.1537px"/>
  <path d="m693 518.02 4.3835 0.0713" fill="#4d4d4d" stroke="#4d4d4d" stroke-width="1.1537px"/>
  <path d="m692.92 523.28 4.3835 0.0713" fill="#4d4d4d" stroke="#4d4d4d" stroke-width="1.1537px"/>
  <path d="m692.83 528.54 4.3835 0.0713" fill="#4d4d4d" stroke="#4d4d4d" stroke-width="1.1537px"/>
  <path d="m692.56 534.33 4.3835 0.0713" fill="#4d4d4d" stroke="#4d4d4d" stroke-width="1.1537px"/>
  <path d="m692.24 539.06 4.3835 0.0713" fill="#4d4d4d" stroke="#4d4d4d" stroke-width="1.1537px"/>
  <path d="m696.07 512.71-549.84-20.68-1.118-0.0182" fill="#999" stroke="#b3b3b3" stroke-width="1.7305"/>
  <path d="m146.2 491.05 12.045 0.19581c0.57505 9e-3 1.0304 0.48193 1.021 1.0596l-0.0287 1.7657c-9e-3 0.57768-0.47989 1.0352-1.0549 1.0259l-12.045-0.19581c-0.57505-9e-3 -1.0304-0.48193-1.021-1.0596l0.0287-1.7657c9e-3 -0.57768 0.47989-1.0352 1.0549-1.0259z" color="#000000" fill="#ececec" opacity=".99026" stroke="#b3b3b3" stroke-width=".23073"/>
  <path d="m694.52 538.96-549.5-12.286" fill="#999" stroke="#b3b3b3" stroke-width=".3461"/>
  <path d="m145.47 525.64 10.199 0.1658c0.4869 8e-3 0.87129 0.4815 0.86185 1.0619l-0.0288 1.7739c-9e-3 0.58036-0.40902 1.0412-0.89592 1.0333l-10.199-0.16579c-0.4869-8e-3 -0.87129-0.48152-0.86185-1.0619l0.0288-1.7739c9e-3 -0.58037 0.40902-1.0412 0.89592-1.0333z" color="#000000" fill="#ececec" opacity=".99026" stroke="#b3b3b3" stroke-width=".21281"/>
  <path d="m146.83 527.3 11.243 0.18278c0.76945 0.0125 1.387 0.13678 1.3847 0.27851-2e-3 0.14179-0.62361 0.24587-1.3931 0.23336l-11.243-0.18278c-0.76945-0.0125-1.387-0.13677-1.3847-0.27852 2e-3 -0.14179 0.62361-0.24586 1.3931-0.23335z" color="#000000" fill="#1a1a1a" filter="url(#c)" opacity=".99026"/>
  <path d="m154.38 524.17 6.6838 0.10866c0.57505 9e-3 1.0304 0.48194 1.021 1.0596l-0.0793 4.8771c-9e-3 0.57768-0.47989 1.0352-1.0549 1.0259l-6.6838-0.10866c-0.57504-9e-3 -1.0304-0.48193-1.021-1.0596l0.0793-4.8771c9e-3 -0.57767 0.47989-1.0352 1.0549-1.0259z" color="#000000" fill="#ececec" opacity=".99026" stroke="#b3b3b3" stroke-width=".20024"/>
  <path d="m694.6 533.93-549.71-12.847" fill="#999" stroke="#b3b3b3" stroke-width=".51915"/>
  <path d="m695.25 528.35-550.08-13.973" fill="#999" stroke="#b3b3b3" stroke-width=".6922"/>
  <path d="m694.78 523.31-549.44-16.202" fill="#999" stroke="#b3b3b3" stroke-width="1.0383"/>
  <path d="m694.87 517.72-549.33-17.876" fill="#999" stroke="#b3b3b3" stroke-width="1.3844"/>
  <path d="m145.97 518.75 14.545 0.23645c0.69437 0.0113 1.2459 0.48276 1.2365 1.0571l-0.0285 1.7556c-9e-3 0.57436-0.57586 1.0277-1.2702 1.0164l-14.545-0.23644c-0.69438-0.0113-1.2459-0.48278-1.2365-1.0571l0.0285-1.7556c9e-3 -0.57437 0.57587-1.0277 1.2702-1.0164z" color="#000000" fill="#ececec" opacity=".99026" stroke="#b3b3b3" stroke-width=".25282"/>
  <path d="m161.41 517.36 6.6838 0.10866c0.57505 9e-3 1.0304 0.48193 1.021 1.0596l-0.0793 4.8771c-9e-3 0.57767-0.47989 1.0352-1.0549 1.0259l-6.6838-0.10866c-0.57505-9e-3 -1.0304-0.48193-1.021-1.0596l0.0793-4.8771c9e-3 -0.57767 0.47989-1.0352 1.0549-1.0259z" color="#000000" fill="#ececec" opacity=".99026" stroke="#b3b3b3" stroke-width=".20024"/>
  <path d="m145.86 511.81 12.045 0.19581c0.57504 9e-3 1.0304 0.48193 1.021 1.0596l-0.0287 1.7657c-9e-3 0.57768-0.47989 1.0352-1.0549 1.0259l-12.045-0.19581c-0.57504-9e-3 -1.0304-0.48194-1.021-1.0596l0.0287-1.7657c9e-3 -0.57768 0.47989-1.0352 1.0549-1.0259z" color="#000000" fill="#ececec" opacity=".99026" stroke="#b3b3b3" stroke-width=".23073"/>
  <path d="m159.22 510.4 6.6838 0.10866c0.57504 9e-3 1.0304 0.48193 1.021 1.0596l-0.0793 4.8771c-9e-3 0.57767-0.47989 1.0352-1.0549 1.0259l-6.6838-0.10866c-0.57505-9e-3 -1.0304-0.48193-1.021-1.0596l0.0793-4.8771c9e-3 -0.57767 0.47989-1.0352 1.0549-1.0259z" color="#000000" fill="#ececec" opacity=".99026" stroke="#b3b3b3" stroke-width=".20024"/>
  <path d="m145.97 504.89 12.045 0.19581c0.57505 9e-3 1.0304 0.48193 1.021 1.0596l-0.0287 1.7657c-9e-3 0.57767-0.47989 1.0352-1.0549 1.0258l-12.045-0.19581c-0.57505-9e-3 -1.0304-0.48193-1.021-1.0596l0.0287-1.7657c9e-3 -0.57767 0.47989-1.0352 1.0549-1.0259z" color="#000000" fill="#ececec" opacity=".99026" stroke="#b3b3b3" stroke-width=".23073"/>
  <path d="m146.64 506.53 9.5776 0.1557c0.65544 0.0106 1.1812 0.13343 1.179 0.27518-2e-3 0.14179-0.53183 0.24735-1.1873 0.23669l-9.5776-0.1557c-0.65544-0.0106-1.1812-0.13343-1.179-0.27516 2e-3 -0.14179 0.53183-0.24737 1.1873-0.23671z" color="#000000" fill="#1a1a1a" filter="url(#c)" opacity=".99026"/>
  <path d="m154.72 503.4 6.6838 0.10865c0.57504 9e-3 1.0304 0.48194 1.021 1.0596l-0.0793 4.8771c-9e-3 0.57767-0.47989 1.0352-1.0549 1.0258l-6.6838-0.10865c-0.57503-9e-3 -1.0304-0.48194-1.021-1.0596l0.0793-4.8771c9e-3 -0.57767 0.47989-1.0352 1.0549-1.0258z" color="#000000" fill="#ececec" opacity=".99026" stroke="#b3b3b3" stroke-width=".20024"/>
  <path d="m146.08 497.97 12.045 0.19581c0.57504 9e-3 1.0304 0.48193 1.021 1.0596l-0.0287 1.7657c-9e-3 0.57767-0.47989 1.0352-1.0549 1.0259l-12.045-0.19581c-0.57504-9e-3 -1.0304-0.48194-1.021-1.0596l0.0287-1.7657c9e-3 -0.57767 0.47989-1.0352 1.0549-1.0258z" color="#000000" fill="#ececec" opacity=".99026" stroke="#b3b3b3" stroke-width=".23073"/>
  <path d="m146.75 499.61 9.5776 0.1557c0.65544 0.0107 1.1812 0.13343 1.179 0.27517-2e-3 0.1418-0.53183 0.24736-1.1873 0.2367l-9.5776-0.1557c-0.65545-0.0106-1.1813-0.13343-1.179-0.27516 2e-3 -0.14179 0.53182-0.24737 1.1873-0.23671z" color="#000000" fill="#1a1a1a" filter="url(#c)" opacity=".99026"/>
  <path d="m157.13 496.52 6.6838 0.10865c0.57503 9e-3 1.0304 0.48194 1.021 1.0596l-0.0793 4.8771c-9e-3 0.57769-0.47989 1.0352-1.0549 1.0259l-6.6838-0.10865c-0.57503-9e-3 -1.0304-0.48194-1.021-1.0596l0.0793-4.8771c9e-3 -0.57768 0.4799-1.0352 1.0549-1.0259z" color="#000000" fill="#ececec" opacity=".99026" stroke="#b3b3b3" stroke-width=".20024"/>
  <path d="m159.55 489.64 6.6838 0.10865c0.57503 9e-3 1.0304 0.48194 1.021 1.0596l-0.0793 4.8771c-9e-3 0.57768-0.47989 1.0352-1.0549 1.0259l-6.6838-0.10865c-0.57504-9e-3 -1.0304-0.48194-1.021-1.0596l0.0793-4.8771c9e-3 -0.57767 0.4799-1.0352 1.0549-1.0259z" color="#000000" fill="#ececec" opacity=".99026" stroke="#b3b3b3" stroke-width=".20024"/>
  <path d="m146.86 492.86 9.5776 0.1557c0.65545 0.0107 1.1813 0.13343 1.179 0.27518-2e-3 0.14178-0.53183 0.24735-1.1873 0.2367l-9.5776-0.1557c-0.65545-0.0107-1.1813-0.13343-1.179-0.27517 2e-3 -0.14179 0.53183-0.24736 1.1873-0.23671z" color="#000000" fill="#1a1a1a" filter="url(#c)" opacity=".99026"/>
  <path d="m146.52 513.45 9.5776 0.1557c0.65545 0.0106 1.1813 0.13343 1.179 0.27518-2e-3 0.14179-0.53183 0.24735-1.1873 0.23669l-9.5776-0.1557c-0.65545-0.0106-1.1813-0.13343-1.179-0.27516 2e-3 -0.14179 0.53182-0.24737 1.1873-0.23671z" color="#000000" fill="#1a1a1a" filter="url(#c)" opacity=".99026"/>
  <path d="m146.94 520.38 11.243 0.18278c0.76945 0.0125 1.387 0.13678 1.3847 0.27851-2e-3 0.14179-0.62361 0.24587-1.3931 0.23336l-11.243-0.18278c-0.76945-0.0125-1.387-0.13677-1.3847-0.27852 2e-3 -0.14179 0.62361-0.24586 1.3931-0.23335z" color="#000000" fill="#1a1a1a" filter="url(#c)" opacity=".99026"/>
  <path d="m146.53 487.07-0.87813-0.0143c2.3092 0.0375 0.0381 2.1606-6e-3 4.8429l-0.65756 40.448c-0.0436 2.6823 2.1573 4.8781-0.15185 4.8405l0.87813 0.0143c-2.3092-0.0375-4.1331-2.2272-4.0895-4.9095l0.65755-40.448c0.0436-2.6823 1.9377-4.8115 4.2469-4.774z" color="#000000" fill="url(#h)" opacity=".99026"/>
  <path d="m150.48 534.51c-0.0181 1.1122-0.97946 1.9985-2.1473 1.9795-1.1678-0.019-2.0999-0.93601-2.0818-2.0482 0.0181-1.1122 0.97946-1.9985 2.1473-1.9795 1.1678 0.019 2.0999 0.93602 2.0818 2.0482z" color="#000000" fill="#4d4d4d" opacity=".99026"/>
  <path d="m148.09 533.06 53.168 15.573 84.048 7.0027c4.5886 2.9122 1.3786 3.7396-0.0818 5.0347l-83.889-6.9841-53.707-17.008 0.46172-3.6184z" color="#000000" fill="#4d4d4d" opacity=".99026"/>
  <path d="m147.85 535.14-0.20544 1.5471 53.701 16.991 83.863 6.9882c1.4528-1.2883 4.6379-2.1338 0.15355-5.0094 0.23318 1.1684-1.4647 1.815-2.4231 2.6649l-83.863-6.9882-51.226-16.193z" color="#000000" fill="#999" filter="url(#l)" opacity=".99026"/>
  <path d="m695.25 512.62 48.396-10.02" fill="#808080" stroke="#b3b3b3" stroke-width="1.7305"/>
  <path d="m694.31 517.67 73.421-11.448" fill="none" stroke="#b3b3b3" stroke-width="1.3844"/>
  <path d="m694.5 523.31 99.504-19.33" fill="none" stroke="#b3b3b3" stroke-width="1.0383"/>
  <path d="m694.75 528.26 98.545 10.094" fill="none" stroke="#b3b3b3" stroke-width=".6922"/>
  <path d="m694.04 533.79 71.79 4.2783" fill="none" stroke="#b3b3b3" stroke-width=".51915"/>
  <path d="m694.32 538.89 47.713 6.424" fill="none" stroke="#b3b3b3" stroke-width=".3461"/>
 </g>
</svg>
